<svg width="78" height="32" viewBox="0 0 78 32" fill="none" xmlns="http://www.w3.org/2000/svg">
<rect width="78" height="32" fill="#E5E5E5"/>
<g clip-path="url(#clip0_255_4985)">
<rect x="-249" y="-57" width="375" height="812" rx="32" fill="#FFFAFA"/>
<rect x="-248.5" y="-56.5" width="374" height="104" fill="#00ABB9" stroke="#00ABB9"/>
<path d="M27.3659 19.4018C27.3659 15.1511 24.9938 11.1973 21.2803 9.17604C21.5154 8.44618 21.6401 7.70475 21.6401 7.00573C21.6401 3.74707 18.9892 1.09619 15.7305 1.09619C12.4706 1.09619 9.8184 3.74707 9.8184 7.00573C9.8184 7.70475 9.94304 8.44489 10.1769 9.17475C8.00532 10.3556 6.26548 12.197 5.20667 14.4315C5.18611 14.4315 5.16812 14.429 5.14756 14.429C2.30908 14.429 0 16.738 0 19.5765C0 22.618 2.6573 24.6945 5.13985 24.7241C5.15784 24.7241 5.17712 24.7241 5.1951 24.7241C5.2555 24.7241 5.31589 24.7202 5.37628 24.7177C7.3577 28.5713 11.3758 31.0384 15.7292 31.0384C16.8356 31.0384 17.9304 30.8829 18.9943 30.5732H18.9956L19.0984 30.5411C19.1023 30.5398 19.1061 30.5385 19.1112 30.5373C19.1626 30.5218 19.2128 30.5064 19.2564 30.491C19.2629 30.4884 19.2706 30.4871 19.2783 30.4846C19.2899 30.4807 19.3001 30.4769 19.3117 30.473C24.1303 28.9169 27.3659 24.4735 27.3659 19.4018ZM15.7292 2.32076C18.312 2.32076 20.4142 4.42296 20.4142 7.00573C20.4142 7.71889 20.2549 8.49372 19.9542 9.24928C19.2436 11.0482 17.6618 12.8626 15.7292 12.8626C15.4877 12.8626 15.2512 12.8343 15.0212 12.7816C14.8837 12.7495 14.7488 12.7058 14.6152 12.657C13.2403 12.1507 12.1403 10.7745 11.5557 9.37906C11.5377 9.33666 11.5184 9.29297 11.5004 9.25056L11.4991 9.24671C11.1997 8.495 11.0417 7.72017 11.0417 7.0083C11.0417 4.42296 13.1452 2.32076 15.7292 2.32076ZM10.6369 10.3184C10.6549 10.3543 10.6755 10.3903 10.6935 10.4263C10.7217 10.4816 10.75 10.5355 10.7796 10.5895C10.8207 10.664 10.8618 10.7398 10.9055 10.8131C10.9363 10.8658 10.9672 10.9197 10.9993 10.9724C11.0455 11.0482 11.0931 11.1215 11.1419 11.196C11.1753 11.2461 11.2062 11.2962 11.2409 11.3451C11.2935 11.4221 11.3501 11.498 11.4053 11.5738C11.4375 11.6175 11.4696 11.6624 11.5017 11.7061C11.5711 11.7961 11.643 11.8835 11.715 11.9695C11.7381 11.9965 11.76 12.0261 11.7831 12.0531C11.8808 12.1649 11.981 12.2754 12.0838 12.3807C12.1108 12.409 12.1403 12.4347 12.1686 12.463C12.2457 12.5401 12.3228 12.6159 12.4037 12.6878C12.4449 12.7251 12.4886 12.7598 12.5297 12.7958C12.5991 12.8562 12.6684 12.9153 12.7404 12.9718C12.7879 13.0091 12.8368 13.0438 12.8843 13.0798C12.9537 13.1311 13.0231 13.1825 13.0951 13.2301C13.1465 13.2648 13.1991 13.2982 13.2518 13.3303C13.3225 13.3753 13.3945 13.419 13.4664 13.4601C13.5204 13.4909 13.5756 13.5205 13.6309 13.55C13.7041 13.5886 13.7787 13.6246 13.8545 13.6593C13.911 13.685 13.9675 13.7107 14.0241 13.7351C14.1012 13.7672 14.1796 13.7968 14.2592 13.825C14.3158 13.8456 14.3736 13.8661 14.4314 13.8841C14.5149 13.9098 14.5997 13.9317 14.6846 13.9522C14.7398 13.9664 14.7951 13.9818 14.8516 13.9934C14.9467 14.0126 15.0431 14.0268 15.1394 14.0409C15.1883 14.0473 15.2358 14.0576 15.2846 14.0627C15.4311 14.0782 15.5789 14.0872 15.7279 14.0872C15.8783 14.0872 16.0261 14.0782 16.1713 14.0627C16.2201 14.0576 16.2676 14.0486 16.3152 14.0409C16.4115 14.0281 16.5079 14.0139 16.603 13.9934C16.6595 13.9818 16.7135 13.9664 16.77 13.9522C16.8549 13.9317 16.9397 13.9098 17.0232 13.8841C17.081 13.8661 17.1375 13.8456 17.1954 13.825C17.2738 13.7968 17.3521 13.7685 17.4305 13.7364C17.4883 13.712 17.5449 13.6863 17.6014 13.6606C17.6759 13.6259 17.7505 13.5899 17.8237 13.5513C17.879 13.5218 17.9355 13.4922 17.9895 13.4614C18.0614 13.4203 18.1321 13.3779 18.2015 13.3342C18.2555 13.3008 18.3081 13.2674 18.3608 13.2314C18.4302 13.1838 18.4983 13.135 18.5664 13.0849C18.6165 13.0476 18.6667 13.0116 18.7168 12.9718C18.7849 12.9178 18.8517 12.8613 18.9185 12.8035C18.9635 12.7649 19.0097 12.7264 19.0547 12.6866C19.1267 12.621 19.1961 12.5529 19.2654 12.4835C19.3014 12.4476 19.3387 12.4141 19.3734 12.3782C19.4749 12.2741 19.5725 12.1661 19.6689 12.0569C19.7036 12.0171 19.7357 11.976 19.7691 11.9348C19.8308 11.8616 19.8912 11.7871 19.9503 11.7113C19.9902 11.6599 20.0274 11.6059 20.066 11.5532C20.1148 11.4864 20.1649 11.4196 20.2112 11.3515C20.2497 11.2949 20.287 11.2371 20.3243 11.1806C20.3679 11.1138 20.4103 11.0469 20.4515 10.9801C20.4874 10.921 20.5221 10.8619 20.5568 10.8028C20.5967 10.7347 20.6339 10.6666 20.6712 10.5985C20.7033 10.5381 20.7354 10.479 20.7663 10.4186C20.783 10.3852 20.8023 10.3518 20.819 10.3184C24.0712 12.1469 26.14 15.6445 26.14 19.4018C26.14 22.0771 25.1326 24.557 23.421 26.4292C23.4557 26.1684 23.4583 25.9397 23.4493 25.7585C23.367 24.1613 22.235 22.7195 20.8138 22.406C19.8051 22.1837 19.0444 22.3597 18.2388 22.5474C17.311 22.7632 16.2586 23.0087 14.4533 22.6836C12.6325 22.3559 11.2139 21.5965 10.2219 20.431C10.2707 20.1445 10.2951 19.8579 10.2951 19.5752C10.2951 19.4172 10.2874 19.2604 10.2733 19.1062C10.2681 19.0548 10.2604 19.0047 10.254 18.9546C10.2412 18.8518 10.2296 18.749 10.2103 18.6488C10.2 18.5897 10.1859 18.5318 10.173 18.474C10.1538 18.3841 10.1332 18.2941 10.1088 18.2055C10.0921 18.1451 10.0741 18.086 10.0548 18.0256C10.0291 17.9408 10.0009 17.8585 9.97002 17.7763C9.94818 17.7172 9.92505 17.6581 9.90064 17.599C9.86723 17.5193 9.83253 17.4409 9.79527 17.3625C9.76828 17.3047 9.7413 17.2482 9.71175 17.1916C9.67191 17.1145 9.62951 17.04 9.58582 16.9668C9.55498 16.9128 9.52414 16.8588 9.49073 16.8074C9.44319 16.7316 9.39179 16.6597 9.33911 16.5864C9.3057 16.5389 9.27358 16.49 9.23888 16.4451C9.17463 16.3615 9.10653 16.2819 9.03843 16.2022C9.01144 16.1701 8.98574 16.1367 8.95747 16.1058C8.8611 16.0005 8.75959 15.899 8.65551 15.8013C8.61182 15.7602 8.56428 15.7229 8.5193 15.6844C8.45377 15.6278 8.38952 15.5713 8.32013 15.5173C8.26745 15.4762 8.21091 15.4377 8.15566 15.3978C8.09141 15.3516 8.02716 15.3053 7.96034 15.2629C7.90123 15.2244 7.83956 15.1884 7.77916 15.1524C7.71235 15.1126 7.64681 15.074 7.57871 15.038C7.51575 15.0046 7.4515 14.9725 7.38596 14.9404C7.31658 14.907 7.2459 14.8748 7.17395 14.8453C7.10713 14.817 7.0416 14.79 6.97349 14.7643C6.89896 14.7361 6.82315 14.7117 6.74605 14.686C6.67924 14.6641 6.61242 14.6423 6.54303 14.623C6.52247 14.6179 6.5032 14.6101 6.48392 14.605C7.42323 12.8035 8.86624 11.3129 10.6369 10.3184ZM1.22457 19.5765C1.22457 17.4139 2.98368 15.6548 5.14628 15.6548C5.27734 15.6548 5.40584 15.6612 5.53048 15.6741C7.54787 15.8694 9.06798 17.5476 9.06798 19.5765C9.06798 19.8695 9.03329 20.1689 8.9639 20.4657C8.8354 21.0118 8.62338 21.4025 8.53858 21.5464C7.92565 22.5769 6.82315 23.3132 5.66026 23.4687L5.65384 23.47C5.48808 23.4918 5.31975 23.5034 5.1527 23.5008C3.25738 23.4751 1.22457 21.8933 1.22457 19.5765ZM6.64968 24.4992C6.65225 24.4979 6.65611 24.4966 6.65868 24.4954C6.79231 24.453 6.92466 24.4041 7.05445 24.3514C7.08143 24.3412 7.10713 24.3296 7.13411 24.3193C7.26261 24.2653 7.38854 24.2062 7.51189 24.1407C7.5286 24.1317 7.5453 24.1214 7.56201 24.1124C7.67765 24.0495 7.79201 23.9827 7.90381 23.912C7.92051 23.9017 7.93721 23.8914 7.95263 23.8811C8.06956 23.804 8.18264 23.7218 8.29315 23.637C8.31499 23.619 8.33812 23.6023 8.35997 23.5843C8.47047 23.4957 8.57841 23.4031 8.68121 23.3068C8.6902 23.2991 8.69791 23.2901 8.70562 23.2824C8.80328 23.1885 8.89708 23.0909 8.98831 22.9894C9.00502 22.9701 9.02172 22.9521 9.03843 22.9341C9.13094 22.8288 9.21832 22.7195 9.30184 22.6065C9.31855 22.5833 9.33525 22.5602 9.35196 22.5371C9.43676 22.4189 9.51772 22.2981 9.59225 22.1721C9.6475 22.0783 9.72203 21.9421 9.80169 21.7712C10.9337 22.8493 12.4153 23.565 14.2348 23.8914C16.2869 24.2602 17.5217 23.9737 18.5137 23.7424C19.2385 23.574 19.8116 23.4417 20.5478 23.6036C21.4332 23.7989 22.1695 24.7729 22.2234 25.8214C22.3005 27.3171 21.0901 28.5905 18.9018 29.3178C18.8979 29.3191 18.8941 29.3204 18.889 29.3217C18.8388 29.3384 18.7862 29.3551 18.7335 29.3705L18.7091 29.3782L18.6358 29.4001C17.6965 29.6738 16.7174 29.8112 15.7267 29.8112C11.9643 29.8125 8.48075 27.7502 6.64968 24.4992Z" fill="white"/>
<path d="M74.9916 21.3072C74.2284 21.3072 73.609 20.6879 73.609 19.9246V7.52471C73.609 6.76144 74.2284 6.14209 74.9916 6.14209C75.7549 6.14209 76.3743 6.76144 76.3743 7.52471V19.9246C76.3743 20.6879 75.7549 21.3072 74.9916 21.3072Z" fill="white"/>
<path d="M77.6118 4.33932C77.6118 4.59503 77.509 4.82632 77.3407 4.99465C77.1723 5.16298 76.941 5.26578 76.6853 5.26578H73.2994C72.788 5.26578 72.3743 4.85202 72.3743 4.3406C72.3743 3.83047 72.788 3.41543 73.2994 3.41543H73.6284C73.5513 3.16872 73.5102 2.9053 73.5102 2.63289C73.5102 1.17831 74.6898 0 76.1431 0C76.2677 0 76.3898 0.00770938 76.5093 0.0256989C77.0464 0.100227 77.3239 0.710585 77.0271 1.16675L76.8035 1.5124C76.6609 1.73342 76.4116 1.85163 76.1482 1.85035H76.1431C75.7113 1.85035 75.3605 2.19986 75.3605 2.63289C75.3605 3.06464 75.7113 3.41543 76.1431 3.41543H76.6866C77.1954 3.41415 77.6118 3.82919 77.6118 4.33932Z" fill="white"/>
<path d="M66.8117 11.3065C64.049 11.3065 61.8106 13.5449 61.8106 16.3063C61.8106 16.3602 61.8119 16.4129 61.8132 16.4656H60.2584C59.6455 16.4656 59.1482 15.9683 59.1482 15.3554V12.5567C59.1482 12.1751 58.9927 11.8307 58.7434 11.5789C58.4941 11.3283 58.1472 11.1741 57.7656 11.1741C57.0023 11.1741 56.3829 11.7935 56.3829 12.5567V15.3554C56.3829 15.9683 55.8857 16.4656 55.2727 16.4656H52.2672C51.6543 16.4656 51.157 15.9683 51.157 15.3554V12.5567C51.157 12.1751 51.0015 11.8307 50.7522 11.5789C50.5017 11.3283 50.1547 11.1741 49.7731 11.1741C49.015 11.1754 48.3943 11.8384 48.3943 12.5966V15.3554C48.3943 15.9683 47.8971 16.4656 47.2841 16.4656H44.871C44.1334 16.4656 43.5346 15.8681 43.5346 15.1292V10.9325C43.5346 9.40987 42.8523 8.04523 41.7793 7.12906C40.8413 6.32852 39.6013 5.86851 38.256 5.94047C35.6912 6.07924 33.625 8.18658 33.5363 10.7539C33.4374 13.5976 35.713 15.9336 38.5335 15.9336C39.3379 15.9336 40.096 15.7434 40.7694 15.4068V16.0313C40.7694 17.7981 42.2021 19.2308 45.0701 19.2308H63.2125C62.5007 19.2308 62.8656 19.403 63.129 19.6896C64.0709 20.7137 65.4342 21.3446 66.9453 21.3061C69.6283 21.2367 71.8012 19.0124 71.8128 16.3294C71.8256 13.5577 69.5821 11.3065 66.8117 11.3065ZM38.5335 13.1697C37.2974 13.1697 36.2977 12.1687 36.2977 10.9338C36.2977 9.69898 37.2987 8.698 38.5335 8.698C39.7697 8.698 40.7694 9.70027 40.7694 10.9338C40.7707 12.1687 39.7697 13.1697 38.5335 13.1697ZM66.8117 18.5421C65.5756 18.5421 64.5759 17.5411 64.5759 16.3063C64.5759 15.0714 65.5769 14.0704 66.8117 14.0704C68.0478 14.0704 69.0475 15.0727 69.0475 16.3063C69.0488 17.5424 68.0478 18.5421 66.8117 18.5421Z" fill="white"/>
<path d="M57.4699 23.7216C58.3215 23.7216 59.0119 23.0312 59.0119 22.1797C59.0119 21.3281 58.3215 20.6377 57.4699 20.6377C56.6183 20.6377 55.928 21.3281 55.928 22.1797C55.928 23.0312 56.6183 23.7216 57.4699 23.7216Z" fill="white"/>
<path d="M53.9555 23.7216C54.8071 23.7216 55.4975 23.0312 55.4975 22.1797C55.4975 21.3281 54.8071 20.6377 53.9555 20.6377C53.1039 20.6377 52.4136 21.3281 52.4136 22.1797C52.4136 23.0312 53.1039 23.7216 53.9555 23.7216Z" fill="white"/>
<path d="M38.5887 4.96111C39.4403 4.96111 40.1307 4.27075 40.1307 3.41915C40.1307 2.56755 39.4403 1.8772 38.5887 1.8772C37.7371 1.8772 37.0468 2.56755 37.0468 3.41915C37.0468 4.27075 37.7371 4.96111 38.5887 4.96111Z" fill="white"/>
<path d="M35.0743 4.96111C35.9259 4.96111 36.6163 4.27075 36.6163 3.41915C36.6163 2.56755 35.9259 1.8772 35.0743 1.8772C34.2227 1.8772 33.5323 2.56755 33.5323 3.41915C33.5323 4.27075 34.2227 4.96111 35.0743 4.96111Z" fill="white"/>
<path d="M46.5014 9.77727C47.353 9.77727 48.0434 9.08691 48.0434 8.23531C48.0434 7.38372 47.353 6.69336 46.5014 6.69336C45.6498 6.69336 44.9595 7.38372 44.9595 8.23531C44.9595 9.08691 45.6498 9.77727 46.5014 9.77727Z" fill="white"/>
<path d="M36.2475 22.9845C36.3336 22.7648 36.4531 22.6119 36.606 22.5258C36.7589 22.4397 36.953 22.396 37.1881 22.396H37.6468C37.8666 22.396 38.067 22.4397 38.2469 22.5258C38.4268 22.6119 38.572 22.8046 38.6825 23.1027L41.0134 29.5892C41.0533 29.683 41.0944 29.8025 41.1368 29.9477C41.1792 30.0929 41.2011 30.2201 41.2011 30.3306C41.2011 30.5658 41.1124 30.7662 40.9363 30.9307C40.7603 31.0952 40.5457 31.1774 40.2952 31.1774C40.0831 31.1774 39.9032 31.1363 39.7542 31.0541C39.6051 30.9718 39.4946 30.8369 39.4252 30.648L38.9305 29.2359H35.8235L35.3172 30.648C35.2542 30.8369 35.1527 30.9718 35.0114 31.0541C34.87 31.1363 34.6863 31.1774 34.4576 31.1774C34.1903 31.1774 33.9744 31.1003 33.8099 30.9474C33.6455 30.7945 33.5632 30.5889 33.5632 30.3294C33.5632 30.2201 33.5851 30.0916 33.6275 29.9464C33.6699 29.8012 33.7123 29.6817 33.7508 29.5879L36.2475 22.9845ZM37.4117 24.4905H37.3886L36.2462 27.8918H38.5065L37.4117 24.4905Z" fill="white"/>
<path d="M41.9913 25.5733C41.9913 25.3137 42.0633 25.1068 42.2085 24.9501C42.3537 24.7933 42.5516 24.7149 42.8034 24.7149C43.054 24.7149 43.2532 24.7933 43.3984 24.9501C43.5436 25.1068 43.6155 25.315 43.6155 25.5733V25.7968H43.6387C43.8661 25.4512 44.1591 25.1852 44.515 24.9963C44.8722 24.8074 45.2706 24.7136 45.71 24.7136C45.8591 24.7136 46.0146 24.7316 46.1752 24.7663C46.3358 24.801 46.4913 24.8627 46.6403 24.9488C46.7894 25.0349 46.9269 25.1467 47.0528 25.2841C47.1787 25.4216 47.2802 25.5925 47.3586 25.7956C47.6015 25.4576 47.8829 25.1929 48.2003 25.0015C48.5177 24.8087 48.9121 24.7136 49.3837 24.7136C49.6818 24.7136 49.9607 24.7483 50.2189 24.819C50.4772 24.8897 50.706 25.0079 50.9013 25.1724C51.0979 25.3368 51.2508 25.5527 51.36 25.82C51.4692 26.0872 51.5245 26.4123 51.5245 26.7965V30.3161C51.5245 30.5435 51.4654 30.744 51.3484 30.9161C51.2302 31.0883 51.0028 31.1757 50.6661 31.1757C50.3282 31.1757 50.1007 31.0896 49.9838 30.9161C49.8656 30.744 49.8078 30.5435 49.8078 30.3161V27.2322C49.8078 26.9263 49.7345 26.6655 49.5906 26.4496C49.4454 26.2337 49.2038 26.1258 48.8672 26.1258C48.7027 26.1258 48.5459 26.1566 48.3969 26.2196C48.2478 26.2826 48.1142 26.3725 47.9973 26.4907C47.879 26.6089 47.7878 26.7503 47.721 26.9148C47.6542 27.0792 47.6208 27.2604 47.6208 27.4557V30.3161C47.6208 30.5435 47.5616 30.744 47.4447 30.9161C47.3265 31.0883 47.0991 31.1757 46.7624 31.1757C46.4245 31.1757 46.197 31.0896 46.0801 30.9161C45.9619 30.744 45.904 30.5435 45.904 30.3161V27.2322C45.904 26.9263 45.8321 26.6655 45.6869 26.4496C45.5417 26.2337 45.3001 26.1258 44.9635 26.1258C44.799 26.1258 44.6422 26.1566 44.4932 26.2196C44.3441 26.2826 44.2105 26.3725 44.0935 26.4907C43.9753 26.6089 43.8841 26.7503 43.8173 26.9148C43.7504 27.0792 43.717 27.2604 43.717 27.4557V30.3161C43.717 30.5435 43.6579 30.744 43.541 30.9161C43.4228 31.0883 43.1953 31.1757 42.8587 31.1757C42.5207 31.1757 42.2933 31.0896 42.1764 30.9161C42.0582 30.744 42.0003 30.5435 42.0003 30.3161V25.5733H41.9913Z" fill="white"/>
<path d="M52.9855 25.5733C52.9855 25.3458 53.0446 25.1454 53.1615 24.9732C53.2797 24.801 53.5072 24.7136 53.8438 24.7136C54.1818 24.7136 54.4092 24.7997 54.5261 24.9732C54.6444 25.1454 54.7022 25.3458 54.7022 25.5733V30.3173C54.7022 30.5448 54.6431 30.7452 54.5261 30.9174C54.4079 31.0896 54.1805 31.177 53.8438 31.177C53.5059 31.177 53.2784 31.0909 53.1615 30.9174C53.0433 30.7452 52.9855 30.5448 52.9855 30.3173V25.5733Z" fill="white"/>
<path d="M56.1631 25.5733C56.1631 25.3137 56.2235 25.1068 56.3455 24.9501C56.4676 24.7933 56.6655 24.7149 56.9405 24.7149C57.2155 24.7149 57.4134 24.7933 57.5354 24.9501C57.6575 25.1068 57.7179 25.315 57.7179 25.5733V25.7968H57.741C57.9839 25.4756 58.2691 25.2148 58.5942 25.0143C58.9193 24.8138 59.3292 24.7136 59.8239 24.7136C60.0835 24.7136 60.3418 24.7483 60.6013 24.819C60.8609 24.8897 61.0922 25.013 61.2952 25.1903C61.4995 25.3664 61.6666 25.6002 61.7951 25.8906C61.9249 26.1811 61.9891 26.5421 61.9891 26.9739V30.3173C61.9891 30.5448 61.93 30.7452 61.8131 30.9174C61.6948 31.0896 61.4674 31.177 61.1307 31.177C60.7928 31.177 60.5654 31.0909 60.4484 30.9174C60.3302 30.7452 60.2724 30.5448 60.2724 30.3173V27.3157C60.2724 26.9623 60.1863 26.6758 60.0128 26.456C59.8406 26.2363 59.5657 26.1271 59.1892 26.1271C59.0401 26.1271 58.8872 26.1566 58.7304 26.2157C58.5737 26.2749 58.4323 26.3622 58.3064 26.4804C58.1805 26.5987 58.079 26.7413 58.0006 26.9096C57.9222 27.078 57.8824 27.2681 57.8824 27.4801V30.3173C57.8824 30.5448 57.8233 30.7452 57.7063 30.9174C57.5881 31.0896 57.3607 31.177 57.024 31.177C56.6861 31.177 56.4586 31.0909 56.3417 30.9174C56.2235 30.7452 56.1657 30.5448 56.1657 30.3173V25.5733H56.1631Z" fill="white"/>
<path d="M69.0642 29.3638C69.0642 29.545 69.0745 29.6941 69.0937 29.811C69.113 29.9292 69.1323 30.0282 69.1529 30.1117C69.1721 30.1939 69.1927 30.2646 69.212 30.3237C69.2312 30.3828 69.2415 30.4471 69.2415 30.5177C69.2415 30.7143 69.1631 30.8724 69.0064 30.9945C68.8496 31.1165 68.6684 31.1769 68.4654 31.1769C68.0966 31.1769 67.8371 31.0767 67.688 30.8762C67.5389 30.6758 67.4606 30.4432 67.4529 30.1759C67.1149 30.5524 66.7525 30.8133 66.3645 30.9585C65.9764 31.1037 65.5537 31.1756 65.0988 31.1756C64.8559 31.1756 64.6182 31.1345 64.3869 31.0523C64.1556 30.97 63.9475 30.8544 63.7624 30.7053C63.5774 30.5563 63.4309 30.3738 63.3217 30.1579C63.2112 29.9421 63.1572 29.6966 63.1572 29.4229C63.1572 29.0696 63.2202 28.774 63.3461 28.5338C63.472 28.2947 63.6442 28.102 63.864 27.9568C64.0837 27.8116 64.3381 27.6998 64.6285 27.6214C64.9189 27.543 65.2286 27.4839 65.5588 27.4454L66.6061 27.3272C66.7076 27.3195 66.8039 27.304 66.8939 27.2796C66.9838 27.2565 67.0622 27.2205 67.129 27.1743C67.1959 27.1267 67.2485 27.0663 67.2884 26.9918C67.3282 26.9173 67.3475 26.817 67.3475 26.6911C67.3475 26.4405 67.2395 26.2594 67.0237 26.1501C66.8078 26.0409 66.5547 25.9857 66.2643 25.9857C65.943 25.9857 65.6912 26.0345 65.5113 26.1322C65.3301 26.2298 65.1772 26.3377 65.0525 26.456C64.9266 26.5742 64.8097 26.6821 64.6992 26.7798C64.5887 26.8774 64.4486 26.9263 64.2751 26.9263C64.0554 26.9263 63.8794 26.862 63.7457 26.7322C63.6121 26.6025 63.5453 26.4483 63.5453 26.2671C63.5453 26.0949 63.6044 25.9176 63.7213 25.7377C63.8395 25.5578 64.013 25.3907 64.2456 25.2378C64.4769 25.0849 64.7634 24.959 65.1052 24.8613C65.447 24.7637 65.8364 24.7148 66.2758 24.7148C66.6832 24.7148 67.0609 24.7483 67.4053 24.8151C67.751 24.8819 68.0452 24.9873 68.2881 25.1325C68.5309 25.2777 68.7211 25.4614 68.8586 25.6863C68.9961 25.9099 69.0642 26.1746 69.0642 26.4804V29.3638ZM67.3462 28.1277C67.2524 28.2138 67.1303 28.2768 66.9813 28.3166C66.8322 28.3564 66.7063 28.3834 66.6048 28.3988L65.9816 28.4926C65.6205 28.5479 65.3455 28.6378 65.1579 28.7638C64.969 28.8897 64.8752 29.0811 64.8752 29.3407C64.8752 29.5373 64.96 29.7044 65.1284 29.8406C65.2967 29.978 65.5305 30.0462 65.8287 30.0462C66.0638 30.0462 66.2758 30.0115 66.4647 29.9408C66.6536 29.8701 66.8117 29.7763 66.9414 29.6581C67.0712 29.5399 67.1714 29.4075 67.2421 29.2585C67.3128 29.1094 67.3475 28.9565 67.3475 28.7997V28.1277H67.3462Z" fill="white"/>
<path d="M70.547 23.2541C70.547 22.9714 70.6254 22.7581 70.7821 22.6129C70.9389 22.4677 71.1471 22.3958 71.4054 22.3958C71.6636 22.3958 71.8718 22.469 72.0286 22.6129C72.1853 22.7581 72.2637 22.9714 72.2637 23.2541V25.6197H72.2868C72.3729 25.5105 72.4757 25.4 72.5927 25.2908C72.7109 25.1816 72.8471 25.0826 73.0051 24.9965C73.1619 24.9104 73.3405 24.841 73.541 24.7909C73.7414 24.7395 73.9624 24.7138 74.2066 24.7138C74.4661 24.7138 74.7244 24.7485 74.984 24.8192C75.2435 24.8899 75.4748 25.0132 75.6779 25.1905C75.8822 25.3666 76.0492 25.6004 76.1777 25.8909C76.3075 26.1813 76.3717 26.5423 76.3717 26.9741V30.3175C76.3717 30.545 76.3126 30.7454 76.1957 30.9176C76.0775 31.0898 75.85 31.1772 75.5134 31.1772C75.1754 31.1772 74.948 31.0911 74.8311 30.9176C74.7128 30.7454 74.655 30.545 74.655 30.3175V27.3159C74.655 26.9625 74.5689 26.676 74.3955 26.4562C74.2233 26.2365 73.9483 26.1273 73.5718 26.1273C73.4227 26.1273 73.2698 26.1568 73.1131 26.2159C72.9563 26.2751 72.815 26.3624 72.689 26.4806C72.5631 26.5989 72.4616 26.7415 72.3832 26.9098C72.3048 27.0782 72.265 27.2683 72.265 27.4803V30.3175C72.265 30.545 72.2059 30.7454 72.089 30.9176C71.9707 31.0898 71.7433 31.1772 71.4066 31.1772C71.0687 31.1772 70.8413 31.0911 70.7243 30.9176C70.6061 30.7454 70.5483 30.545 70.5483 30.3175V23.2541H70.547Z" fill="white"/>
<path d="M74.9916 21.3072C74.2284 21.3072 73.609 20.6879 73.609 19.9246V7.52471C73.609 6.76144 74.2284 6.14209 74.9916 6.14209C75.7549 6.14209 76.3743 6.76144 76.3743 7.52471V19.9246C76.3743 20.6879 75.7549 21.3072 74.9916 21.3072Z" fill="white"/>
<path d="M77.6118 4.33932C77.6118 4.59503 77.509 4.82632 77.3407 4.99465C77.1723 5.16298 76.941 5.26578 76.6853 5.26578H73.2994C72.788 5.26578 72.3743 4.85202 72.3743 4.3406C72.3743 3.83047 72.788 3.41543 73.2994 3.41543H73.6284C73.5513 3.16872 73.5102 2.9053 73.5102 2.63289C73.5102 1.17831 74.6898 0 76.1431 0C76.2677 0 76.3898 0.00770938 76.5093 0.0256989C77.0464 0.100227 77.3239 0.710585 77.0271 1.16675L76.8035 1.5124C76.6609 1.73342 76.4116 1.85163 76.1482 1.85035H76.1431C75.7113 1.85035 75.3605 2.19986 75.3605 2.63289C75.3605 3.06464 75.7113 3.41543 76.1431 3.41543H76.6866C77.1954 3.41415 77.6118 3.82919 77.6118 4.33932Z" fill="white"/>
<path d="M66.8117 11.3065C64.049 11.3065 61.8106 13.5449 61.8106 16.3063C61.8106 16.3602 61.8119 16.4129 61.8132 16.4656H60.2584C59.6455 16.4656 59.1482 15.9683 59.1482 15.3554V12.5567C59.1482 12.1751 58.9927 11.8307 58.7434 11.5789C58.4941 11.3283 58.1472 11.1741 57.7656 11.1741C57.0023 11.1741 56.3829 11.7935 56.3829 12.5567V15.3554C56.3829 15.9683 55.8857 16.4656 55.2727 16.4656H52.2672C51.6543 16.4656 51.157 15.9683 51.157 15.3554V12.5567C51.157 12.1751 51.0015 11.8307 50.7522 11.5789C50.5017 11.3283 50.1547 11.1741 49.7731 11.1741C49.015 11.1754 48.3943 11.8384 48.3943 12.5966V15.3554C48.3943 15.9683 47.8971 16.4656 47.2841 16.4656H44.871C44.1334 16.4656 43.5346 15.8681 43.5346 15.1292V10.9325C43.5346 9.40987 42.8523 8.04523 41.7793 7.12906C40.8413 6.32852 39.6013 5.86851 38.256 5.94047C35.6912 6.07924 33.625 8.18658 33.5363 10.7539C33.4374 13.5976 35.713 15.9336 38.5335 15.9336C39.3379 15.9336 40.096 15.7434 40.7694 15.4068V16.0313C40.7694 17.7981 42.2021 19.2308 45.0701 19.2308H63.2125C62.5007 19.2308 62.8656 19.403 63.129 19.6896C64.0709 20.7137 65.4342 21.3446 66.9453 21.3061C69.6283 21.2367 71.8012 19.0124 71.8128 16.3294C71.8256 13.5577 69.5821 11.3065 66.8117 11.3065ZM38.5335 13.1697C37.2974 13.1697 36.2977 12.1687 36.2977 10.9338C36.2977 9.69898 37.2987 8.698 38.5335 8.698C39.7697 8.698 40.7694 9.70027 40.7694 10.9338C40.7707 12.1687 39.7697 13.1697 38.5335 13.1697ZM66.8117 18.5421C65.5756 18.5421 64.5759 17.5411 64.5759 16.3063C64.5759 15.0714 65.5769 14.0704 66.8117 14.0704C68.0478 14.0704 69.0475 15.0727 69.0475 16.3063C69.0488 17.5424 68.0478 18.5421 66.8117 18.5421Z" fill="white"/>
<path d="M57.4699 23.7216C58.3215 23.7216 59.0119 23.0312 59.0119 22.1797C59.0119 21.3281 58.3215 20.6377 57.4699 20.6377C56.6183 20.6377 55.928 21.3281 55.928 22.1797C55.928 23.0312 56.6183 23.7216 57.4699 23.7216Z" fill="white"/>
<path d="M53.9555 23.7216C54.8071 23.7216 55.4975 23.0312 55.4975 22.1797C55.4975 21.3281 54.8071 20.6377 53.9555 20.6377C53.1039 20.6377 52.4136 21.3281 52.4136 22.1797C52.4136 23.0312 53.1039 23.7216 53.9555 23.7216Z" fill="white"/>
<path d="M38.5887 4.96111C39.4403 4.96111 40.1307 4.27075 40.1307 3.41915C40.1307 2.56755 39.4403 1.8772 38.5887 1.8772C37.7371 1.8772 37.0468 2.56755 37.0468 3.41915C37.0468 4.27075 37.7371 4.96111 38.5887 4.96111Z" fill="white"/>
<path d="M35.0743 4.96111C35.9259 4.96111 36.6163 4.27075 36.6163 3.41915C36.6163 2.56755 35.9259 1.8772 35.0743 1.8772C34.2227 1.8772 33.5323 2.56755 33.5323 3.41915C33.5323 4.27075 34.2227 4.96111 35.0743 4.96111Z" fill="white"/>
<path d="M46.5014 9.77727C47.353 9.77727 48.0434 9.08691 48.0434 8.23531C48.0434 7.38372 47.353 6.69336 46.5014 6.69336C45.6498 6.69336 44.9595 7.38372 44.9595 8.23531C44.9595 9.08691 45.6498 9.77727 46.5014 9.77727Z" fill="white"/>
<path d="M36.2475 22.9845C36.3336 22.7648 36.4531 22.6119 36.606 22.5258C36.7589 22.4397 36.953 22.396 37.1881 22.396H37.6468C37.8666 22.396 38.067 22.4397 38.2469 22.5258C38.4268 22.6119 38.572 22.8046 38.6825 23.1027L41.0134 29.5892C41.0533 29.683 41.0944 29.8025 41.1368 29.9477C41.1792 30.0929 41.2011 30.2201 41.2011 30.3306C41.2011 30.5658 41.1124 30.7662 40.9363 30.9307C40.7603 31.0952 40.5457 31.1774 40.2952 31.1774C40.0831 31.1774 39.9032 31.1363 39.7542 31.0541C39.6051 30.9718 39.4946 30.8369 39.4252 30.648L38.9305 29.2359H35.8235L35.3172 30.648C35.2542 30.8369 35.1527 30.9718 35.0114 31.0541C34.87 31.1363 34.6863 31.1774 34.4576 31.1774C34.1903 31.1774 33.9744 31.1003 33.8099 30.9474C33.6455 30.7945 33.5632 30.5889 33.5632 30.3294C33.5632 30.2201 33.5851 30.0916 33.6275 29.9464C33.6699 29.8012 33.7123 29.6817 33.7508 29.5879L36.2475 22.9845ZM37.4117 24.4905H37.3886L36.2462 27.8918H38.5065L37.4117 24.4905Z" fill="white"/>
<path d="M41.9913 25.5733C41.9913 25.3137 42.0633 25.1068 42.2085 24.9501C42.3537 24.7933 42.5516 24.7149 42.8034 24.7149C43.054 24.7149 43.2532 24.7933 43.3984 24.9501C43.5436 25.1068 43.6155 25.315 43.6155 25.5733V25.7968H43.6387C43.8661 25.4512 44.1591 25.1852 44.515 24.9963C44.8722 24.8074 45.2706 24.7136 45.71 24.7136C45.8591 24.7136 46.0146 24.7316 46.1752 24.7663C46.3358 24.801 46.4913 24.8627 46.6403 24.9488C46.7894 25.0349 46.9269 25.1467 47.0528 25.2841C47.1787 25.4216 47.2802 25.5925 47.3586 25.7956C47.6015 25.4576 47.8829 25.1929 48.2003 25.0015C48.5177 24.8087 48.9121 24.7136 49.3837 24.7136C49.6818 24.7136 49.9607 24.7483 50.2189 24.819C50.4772 24.8897 50.706 25.0079 50.9013 25.1724C51.0979 25.3368 51.2508 25.5527 51.36 25.82C51.4692 26.0872 51.5245 26.4123 51.5245 26.7965V30.3161C51.5245 30.5435 51.4654 30.744 51.3484 30.9161C51.2302 31.0883 51.0028 31.1757 50.6661 31.1757C50.3282 31.1757 50.1007 31.0896 49.9838 30.9161C49.8656 30.744 49.8078 30.5435 49.8078 30.3161V27.2322C49.8078 26.9263 49.7345 26.6655 49.5906 26.4496C49.4454 26.2337 49.2038 26.1258 48.8672 26.1258C48.7027 26.1258 48.5459 26.1566 48.3969 26.2196C48.2478 26.2826 48.1142 26.3725 47.9973 26.4907C47.879 26.6089 47.7878 26.7503 47.721 26.9148C47.6542 27.0792 47.6208 27.2604 47.6208 27.4557V30.3161C47.6208 30.5435 47.5616 30.744 47.4447 30.9161C47.3265 31.0883 47.0991 31.1757 46.7624 31.1757C46.4245 31.1757 46.197 31.0896 46.0801 30.9161C45.9619 30.744 45.904 30.5435 45.904 30.3161V27.2322C45.904 26.9263 45.8321 26.6655 45.6869 26.4496C45.5417 26.2337 45.3001 26.1258 44.9635 26.1258C44.799 26.1258 44.6422 26.1566 44.4932 26.2196C44.3441 26.2826 44.2105 26.3725 44.0935 26.4907C43.9753 26.6089 43.8841 26.7503 43.8173 26.9148C43.7504 27.0792 43.717 27.2604 43.717 27.4557V30.3161C43.717 30.5435 43.6579 30.744 43.541 30.9161C43.4228 31.0883 43.1953 31.1757 42.8587 31.1757C42.5207 31.1757 42.2933 31.0896 42.1764 30.9161C42.0582 30.744 42.0003 30.5435 42.0003 30.3161V25.5733H41.9913Z" fill="white"/>
<path d="M52.9855 25.5733C52.9855 25.3458 53.0446 25.1454 53.1615 24.9732C53.2797 24.801 53.5072 24.7136 53.8438 24.7136C54.1818 24.7136 54.4092 24.7997 54.5261 24.9732C54.6444 25.1454 54.7022 25.3458 54.7022 25.5733V30.3173C54.7022 30.5448 54.6431 30.7452 54.5261 30.9174C54.4079 31.0896 54.1805 31.177 53.8438 31.177C53.5059 31.177 53.2784 31.0909 53.1615 30.9174C53.0433 30.7452 52.9855 30.5448 52.9855 30.3173V25.5733Z" fill="white"/>
<path d="M56.1631 25.5733C56.1631 25.3137 56.2235 25.1068 56.3455 24.9501C56.4676 24.7933 56.6655 24.7149 56.9405 24.7149C57.2155 24.7149 57.4134 24.7933 57.5354 24.9501C57.6575 25.1068 57.7179 25.315 57.7179 25.5733V25.7968H57.741C57.9839 25.4756 58.2691 25.2148 58.5942 25.0143C58.9193 24.8138 59.3292 24.7136 59.8239 24.7136C60.0835 24.7136 60.3418 24.7483 60.6013 24.819C60.8609 24.8897 61.0922 25.013 61.2952 25.1903C61.4995 25.3664 61.6666 25.6002 61.7951 25.8906C61.9249 26.1811 61.9891 26.5421 61.9891 26.9739V30.3173C61.9891 30.5448 61.93 30.7452 61.8131 30.9174C61.6948 31.0896 61.4674 31.177 61.1307 31.177C60.7928 31.177 60.5654 31.0909 60.4484 30.9174C60.3302 30.7452 60.2724 30.5448 60.2724 30.3173V27.3157C60.2724 26.9623 60.1863 26.6758 60.0128 26.456C59.8406 26.2363 59.5657 26.1271 59.1892 26.1271C59.0401 26.1271 58.8872 26.1566 58.7304 26.2157C58.5737 26.2749 58.4323 26.3622 58.3064 26.4804C58.1805 26.5987 58.079 26.7413 58.0006 26.9096C57.9222 27.078 57.8824 27.2681 57.8824 27.4801V30.3173C57.8824 30.5448 57.8233 30.7452 57.7063 30.9174C57.5881 31.0896 57.3607 31.177 57.024 31.177C56.6861 31.177 56.4586 31.0909 56.3417 30.9174C56.2235 30.7452 56.1657 30.5448 56.1657 30.3173V25.5733H56.1631Z" fill="white"/>
<path d="M69.0642 29.3638C69.0642 29.545 69.0745 29.6941 69.0937 29.811C69.113 29.9292 69.1323 30.0282 69.1529 30.1117C69.1721 30.1939 69.1927 30.2646 69.212 30.3237C69.2312 30.3828 69.2415 30.4471 69.2415 30.5177C69.2415 30.7143 69.1631 30.8724 69.0064 30.9945C68.8496 31.1165 68.6684 31.1769 68.4654 31.1769C68.0966 31.1769 67.8371 31.0767 67.688 30.8762C67.5389 30.6758 67.4606 30.4432 67.4529 30.1759C67.1149 30.5524 66.7525 30.8133 66.3645 30.9585C65.9764 31.1037 65.5537 31.1756 65.0988 31.1756C64.8559 31.1756 64.6182 31.1345 64.3869 31.0523C64.1556 30.97 63.9475 30.8544 63.7624 30.7053C63.5774 30.5563 63.4309 30.3738 63.3217 30.1579C63.2112 29.9421 63.1572 29.6966 63.1572 29.4229C63.1572 29.0696 63.2202 28.774 63.3461 28.5338C63.472 28.2947 63.6442 28.102 63.864 27.9568C64.0837 27.8116 64.3381 27.6998 64.6285 27.6214C64.9189 27.543 65.2286 27.4839 65.5588 27.4454L66.6061 27.3272C66.7076 27.3195 66.8039 27.304 66.8939 27.2796C66.9838 27.2565 67.0622 27.2205 67.129 27.1743C67.1959 27.1267 67.2485 27.0663 67.2884 26.9918C67.3282 26.9173 67.3475 26.817 67.3475 26.6911C67.3475 26.4405 67.2395 26.2594 67.0237 26.1501C66.8078 26.0409 66.5547 25.9857 66.2643 25.9857C65.943 25.9857 65.6912 26.0345 65.5113 26.1322C65.3301 26.2298 65.1772 26.3377 65.0525 26.456C64.9266 26.5742 64.8097 26.6821 64.6992 26.7798C64.5887 26.8774 64.4486 26.9263 64.2751 26.9263C64.0554 26.9263 63.8794 26.862 63.7457 26.7322C63.6121 26.6025 63.5453 26.4483 63.5453 26.2671C63.5453 26.0949 63.6044 25.9176 63.7213 25.7377C63.8395 25.5578 64.013 25.3907 64.2456 25.2378C64.4769 25.0849 64.7634 24.959 65.1052 24.8613C65.447 24.7637 65.8364 24.7148 66.2758 24.7148C66.6832 24.7148 67.0609 24.7483 67.4053 24.8151C67.751 24.8819 68.0452 24.9873 68.2881 25.1325C68.5309 25.2777 68.7211 25.4614 68.8586 25.6863C68.9961 25.9099 69.0642 26.1746 69.0642 26.4804V29.3638ZM67.3462 28.1277C67.2524 28.2138 67.1303 28.2768 66.9813 28.3166C66.8322 28.3564 66.7063 28.3834 66.6048 28.3988L65.9816 28.4926C65.6205 28.5479 65.3455 28.6378 65.1579 28.7638C64.969 28.8897 64.8752 29.0811 64.8752 29.3407C64.8752 29.5373 64.96 29.7044 65.1284 29.8406C65.2967 29.978 65.5305 30.0462 65.8287 30.0462C66.0638 30.0462 66.2758 30.0115 66.4647 29.9408C66.6536 29.8701 66.8117 29.7763 66.9414 29.6581C67.0712 29.5399 67.1714 29.4075 67.2421 29.2585C67.3128 29.1094 67.3475 28.9565 67.3475 28.7997V28.1277H67.3462Z" fill="white"/>
<path d="M70.547 23.2541C70.547 22.9714 70.6254 22.7581 70.7821 22.6129C70.9389 22.4677 71.1471 22.3958 71.4054 22.3958C71.6636 22.3958 71.8718 22.469 72.0286 22.6129C72.1853 22.7581 72.2637 22.9714 72.2637 23.2541V25.6197H72.2868C72.3729 25.5105 72.4757 25.4 72.5927 25.2908C72.7109 25.1816 72.8471 25.0826 73.0051 24.9965C73.1619 24.9104 73.3405 24.841 73.541 24.7909C73.7414 24.7395 73.9624 24.7138 74.2066 24.7138C74.4661 24.7138 74.7244 24.7485 74.984 24.8192C75.2435 24.8899 75.4748 25.0132 75.6779 25.1905C75.8822 25.3666 76.0492 25.6004 76.1777 25.8909C76.3075 26.1813 76.3717 26.5423 76.3717 26.9741V30.3175C76.3717 30.545 76.3126 30.7454 76.1957 30.9176C76.0775 31.0898 75.85 31.1772 75.5134 31.1772C75.1754 31.1772 74.948 31.0911 74.8311 30.9176C74.7128 30.7454 74.655 30.545 74.655 30.3175V27.3159C74.655 26.9625 74.5689 26.676 74.3955 26.4562C74.2233 26.2365 73.9483 26.1273 73.5718 26.1273C73.4227 26.1273 73.2698 26.1568 73.1131 26.2159C72.9563 26.2751 72.815 26.3624 72.689 26.4806C72.5631 26.5989 72.4616 26.7415 72.3832 26.9098C72.3048 27.0782 72.265 27.2683 72.265 27.4803V30.3175C72.265 30.545 72.2059 30.7454 72.089 30.9176C71.9707 31.0898 71.7433 31.1772 71.4066 31.1772C71.0687 31.1772 70.8413 31.0911 70.7243 30.9176C70.6061 30.7454 70.5483 30.545 70.5483 30.3175V23.2541H70.547Z" fill="white"/>
</g>
<rect x="-253" y="-61" width="383" height="820" rx="36" stroke="#2E2E2E" stroke-width="8"/>
<defs>
<clipPath id="clip0_255_4985">
<rect x="-249" y="-57" width="375" height="812" rx="32" fill="white"/>
</clipPath>
</defs>
</svg>
