<?xml version="1.0" encoding="UTF-8"?><svg xmlns="http://www.w3.org/2000/svg" viewBox="0 0 175.25 86.83"><defs><style>.e{stroke-width:.25px;}.e,.f{fill:#f5f5f5;}.e,.f,.g,.h{stroke:#f5f5f5;stroke-miterlimit:10;}.g{fill:#224f5e;}.h{fill:none;}</style></defs><g id="a"/><g id="b"><g id="c"><g id="d"><g><circle class="f" cx="122.15" cy="72.36" r="3.58"/><circle class="f" cx="122.15" cy="82.75" r="3.58"/><path class="f" d="M171.17,62.07h0c-1.74,0-3.16-1.42-3.16-3.16V17.59c0-1.74,1.42-3.16,3.16-3.16h0c1.74,0,3.16,1.42,3.16,3.16V58.91c0,1.74-1.42,3.16-3.16,3.16Z"/><path class="e" d="M80.63,33.95c0,1.76,1.41,3.2,3.13,3.2h0c1.72,0,3.13-1.44,3.13-3.2l-.02-.43V11.76c0-2.39,1.95-4.34,4.34-4.34h0c2.39,0,4.34,1.95,4.34,4.34V54.05c0,5.93,4.56,10.78,10.13,10.78h0c3.38,0,6.38-1.78,8.22-4.51l.15-.23c1.86,2.89,5.02,4.8,8.59,4.8h0c5.68,0,10.33-4.85,10.33-10.78V11.66c0-2.32,1.95-4.22,4.34-4.22h0c2.39,0,4.34,1.9,4.34,4.22V54.05c0,.18,0,.36,.01,.54,.11,2.18,.88,4.19,2.11,5.85,.06,.08,.11,.15,.17,.22,1.99,2.53,5.08,4.17,8.53,4.17h0c5.95,0,10.82-4.85,10.82-10.78V11.29c0-5.93-4.87-10.78-10.82-10.78h0c-3.22,0-6.13,1.42-8.12,3.67l-.22-.22c-1.85-2.11-4.48-3.43-7.39-3.43h0c-5.57,0-10.12,4.85-10.12,10.78V54.31c.01,2.39-1.94,4.34-4.33,4.34h0c-2.39,0-4.34-1.95-4.34-4.34v-3.09l-.03-1.77v-7.9c0-2.39-1.75-4.34-3.88-4.34h0c-2.13,0-3.88,1.95-3.88,4.34v12.75c.01,2.39-1.94,4.34-4.33,4.34h0c-2.39,0-4.34-1.95-4.34-4.34V11.76l-.02-.48c0-5.93-4.7-10.78-10.43-10.78h0c-5.74,0-10.43,4.85-10.43,10.78v21.97l.02,.7Z"/><path class="g" d="M152.18,58.65h0c-2.39,0-4.34-1.95-4.34-4.34V11.77c0-2.39,1.95-4.34,4.34-4.34h0c2.39,0,4.34,1.95,4.34,4.34V54.31c.01,2.39-1.95,4.34-4.34,4.34Z"/><circle class="e" cx="84.12" cy="43.77" r="3.58"/><circle class="f" cx="84.12" cy="54.16" r="3.58"/><circle class="f" cx="171.17" cy="7.98" r="3.58"/><circle class="f" cx="110.41" cy="29.11" r="3.58"/></g><g><path class="h" d="M11.58,30.63c2.15-5.59,6.51-10.15,12.06-12.73"/><path class="h" d="M45.16,18.53c8.26,4,13.96,12.47,13.96,22.26,0,13.65-11.07,24.72-24.72,24.72-10.24,0-19.02-6.22-22.78-15.1"/><path class="h" d="M46.28,12.38c0,6.56-5.32,14.5-11.88,14.5s-11.88-7.94-11.88-14.5S27.84,.5,34.4,.5s11.88,5.32,11.88,11.88Z"/><path class="h" d="M20.84,40.56c0,2.58-1.02,4.51-1.38,5.12-1.76,2.97-5.15,5.09-8.79,5.05-5.03-.06-10.17-4.26-10.17-10.17s4.55-10.17,10.17-10.17,10.17,4.56,10.17,10.17Z"/></g></g></g></g></svg>